<!--<svg xmlns="http://www.w3.org/2000/svg" fill="none" class="icon icon-cart" viewBox="0 0 40 40"><path fill="currentColor" fill-rule="evenodd" d="M20.5 6.5a4.75 4.75 0 0 0-4.75 4.75v.56h-3.16l-.77 11.6a5 5 0 0 0 4.99 5.34h7.38a5 5 0 0 0 4.99-5.33l-.77-11.6h-3.16v-.57A4.75 4.75 0 0 0 20.5 6.5m3.75 5.31v-.56a3.75 3.75 0 1 0-7.5 0v.56zm-7.5 1h7.5v.56a3.75 3.75 0 1 1-7.5 0zm-1 0v.56a4.75 4.75 0 1 0 9.5 0v-.56h2.22l.71 10.67a4 4 0 0 1-3.99 4.27h-7.38a4 4 0 0 1-4-4.27l.72-10.67z"/></svg>-->
<svg width="16" height="21" viewBox="0 0 16 21" fill="none" xmlns="http://www.w3.org/2000/svg">
<path d="M8.02296 0C6.93035 0.0100307 5.8861 0.451793 5.11799 1.2289C4.34988 2.006 3.92029 3.05536 3.92298 4.148V5.857H0.732978C0.642668 5.85523 0.552908 5.87172 0.469123 5.90547C0.385337 5.93921 0.309239 5.98953 0.245368 6.0534C0.181497 6.11727 0.131167 6.19338 0.0974185 6.27717C0.06367 6.36095 0.0471893 6.45069 0.0489566 6.541V17.249C0.0482983 17.698 0.136269 18.1428 0.307807 18.5578C0.479344 18.9728 0.73113 19.3498 1.04865 19.6674C1.36617 19.9849 1.74322 20.2366 2.15821 20.4082C2.5732 20.5797 3.01794 20.6677 3.46699 20.667H12.581C13.03 20.6677 13.4748 20.5797 13.8898 20.4082C14.3048 20.2366 14.6818 19.9849 14.9993 19.6674C15.3169 19.3498 15.5686 18.9728 15.7401 18.5578C15.9117 18.1428 15.9996 17.698 15.999 17.249V6.54C16.0007 6.44969 15.9843 6.35995 15.9505 6.27617C15.9168 6.19238 15.8664 6.11627 15.8026 6.0524C15.7387 5.98853 15.6626 5.93821 15.5788 5.90447C15.495 5.87072 15.4053 5.85423 15.315 5.856H12.123V4.148C12.1257 3.05536 11.6961 2.006 10.928 1.2289C10.1599 0.451793 9.11556 0.0100307 8.02296 0ZM5.28901 4.146C5.27913 3.78074 5.34252 3.41721 5.47547 3.07687C5.60842 2.73653 5.8082 2.42627 6.06306 2.16444C6.31791 1.9026 6.62267 1.69448 6.9593 1.55237C7.29592 1.41026 7.65757 1.33705 8.02296 1.33705C8.38834 1.33705 8.75005 1.41026 9.08668 1.55237C9.4233 1.69448 9.72806 1.9026 9.98292 2.16444C10.2378 2.42627 10.4375 2.73653 10.5705 3.07687C10.7035 3.41721 10.7668 3.78074 10.757 4.146V5.856H5.28901V4.146ZM14.631 7.246V17.272C14.6322 17.5417 14.58 17.8089 14.4773 18.0583C14.3747 18.3077 14.2236 18.5342 14.0329 18.7249C13.8422 18.9156 13.6157 19.0667 13.3663 19.1693C13.1169 19.272 12.8496 19.3242 12.58 19.323H3.46601C3.19634 19.3242 2.92907 19.272 2.67969 19.1693C2.43032 19.0667 2.20376 18.9156 2.01307 18.7249C1.82238 18.5342 1.67132 18.3077 1.56867 18.0583C1.46602 17.8089 1.41379 17.5417 1.41498 17.272V7.246H3.92298V8.431C3.91946 8.52296 3.93453 8.61468 3.96729 8.70068C4.00006 8.78667 4.04984 8.86517 4.11365 8.93147C4.17747 8.99778 4.25401 9.05052 4.33869 9.08655C4.42337 9.12258 4.51443 9.14115 4.60645 9.14115C4.69848 9.14115 4.78959 9.12258 4.87427 9.08655C4.95895 9.05052 5.03549 8.99778 5.09931 8.93147C5.16313 8.86517 5.21291 8.78667 5.24567 8.70068C5.27844 8.61468 5.2935 8.52296 5.28998 8.431V7.246H10.758V8.431C10.7545 8.52296 10.7695 8.61468 10.8023 8.70068C10.8351 8.78667 10.8849 8.86517 10.9487 8.93147C11.0125 8.99778 11.089 9.05052 11.1737 9.08655C11.2584 9.12258 11.3494 9.14115 11.4415 9.14115C11.5335 9.14115 11.6246 9.12258 11.7092 9.08655C11.7939 9.05052 11.8705 8.99778 11.9343 8.93147C11.9981 8.86517 12.0479 8.78667 12.0806 8.70068C12.1134 8.61468 12.1285 8.52296 12.125 8.431V7.246H14.631Z" fill="black"></path>
</svg>