<!--<svg fill="none" class="icon icon-search" viewBox="0 0 18 19"><path fill="currentColor" fill-rule="evenodd" d="M11.03 11.68A5.784 5.784 0 1 1 2.85 3.5a5.784 5.784 0 0 1 8.18 8.18m.26 1.12a6.78 6.78 0 1 1 .72-.7l5.4 5.4a.5.5 0 1 1-.71.7z" clip-rule="evenodd"/></svg>-->
<svg width="21" height="21" viewBox="0 0 21 21" fill="none" xmlns="http://www.w3.org/2000/svg">
<path d="M8.63708 5.30547e-06C7.28475 -0.00151041 5.95184 0.321761 4.75045 0.942627C3.54907 1.56349 2.51435 2.4638 1.73335 3.5678C0.952343 4.67181 0.447889 5.94723 0.262419 7.28678C0.0769496 8.62634 0.215889 9.99084 0.667549 11.2655C1.11921 12.5402 1.87038 13.6878 2.85788 14.6117C3.84538 15.5356 5.04032 16.2089 6.34219 16.5749C7.64405 16.9408 9.01478 16.9888 10.339 16.7148C11.6633 16.4407 12.9024 15.8526 13.9521 15L19.0851 20.133C19.2493 20.297 19.472 20.3892 19.7041 20.3892C19.9362 20.3892 20.1588 20.297 20.3231 20.133C20.4043 20.0526 20.4687 19.9569 20.5127 19.8514C20.5567 19.7459 20.5793 19.6328 20.5793 19.5185C20.5793 19.4042 20.5567 19.2911 20.5127 19.1856C20.4687 19.0801 20.4043 18.9844 20.3231 18.904L15.1921 13.769C16.1995 12.5305 16.8351 11.0317 17.025 9.44648C17.215 7.8613 16.9516 6.25476 16.2653 4.81326C15.5791 3.37176 14.4981 2.1544 13.1479 1.30245C11.7977 0.450502 10.2336 -0.00111478 8.63708 5.30547e-06ZM8.63708 1.74701C9.96222 1.74701 11.2576 2.13995 12.3594 2.87616C13.4612 3.61236 14.32 4.65876 14.8271 5.88303C15.3342 7.10729 15.4669 8.45444 15.2083 9.75411C14.9498 11.0538 14.3117 12.2476 13.3747 13.1846C12.4377 14.1216 11.2439 14.7597 9.94419 15.0183C8.64452 15.2768 7.29737 15.1441 6.0731 14.637C4.84884 14.1299 3.80244 13.2711 3.06624 12.1693C2.33003 11.0675 1.93708 9.77214 1.93708 8.44701C1.93511 7.56659 2.10706 6.69446 2.44306 5.88069C2.77907 5.06691 3.27251 4.32753 3.89506 3.70498C4.5176 3.08243 5.25699 2.58899 6.07077 2.25298C6.88454 1.91698 7.75667 1.74503 8.63708 1.74701Z" fill="black"></path>
</svg>