<!--<svg xmlns="http://www.w3.org/2000/svg" fill="none" class="icon icon-account" viewBox="0 0 18 19"><path fill="currentColor" fill-rule="evenodd" d="M6 4.5a3 3 0 1 1 6 0 3 3 0 0 1-6 0m3-4a4 4 0 1 0 0 8 4 4 0 0 0 0-8m5.58 12.15c1.12.82 1.83 2.24 1.91 4.85H1.51c.08-2.6.79-4.03 1.9-4.85C4.66 11.75 6.5 11.5 9 11.5s4.35.26 5.58 1.15M9 10.5c-2.5 0-4.65.24-6.17 1.35C1.27 12.98.5 14.93.5 18v.5h17V18c0-3.07-.77-5.02-2.33-6.15-1.52-1.1-3.67-1.35-6.17-1.35" clip-rule="evenodd"/></svg>-->
<svg width="18" height="21" viewBox="0 0 18 21" fill="none" xmlns="http://www.w3.org/2000/svg">
<path fill-rule="evenodd" clip-rule="evenodd" d="M1.74799 19.629C1.74799 17.7548 2.49249 15.9575 3.81772 14.6322C5.14294 13.307 6.94033 12.5625 8.81448 12.5625C10.6886 12.5625 12.486 13.307 13.8112 14.6322C15.1365 15.9575 15.881 17.7548 15.881 19.629C15.881 19.8372 15.9637 20.0369 16.1109 20.1841C16.2581 20.3313 16.4578 20.414 16.666 20.414C16.8742 20.414 17.0739 20.3313 17.2211 20.1841C17.3683 20.0369 17.451 19.8372 17.451 19.629C17.451 17.3383 16.541 15.1415 14.9213 13.5217C13.3015 11.902 11.1047 10.992 8.814 10.992C6.52332 10.992 4.32645 11.902 2.7067 13.5217C1.08694 15.1415 0.177002 17.3383 0.177002 19.629C0.177002 19.8372 0.259705 20.0369 0.406921 20.1841C0.554137 20.3313 0.75378 20.414 0.961975 20.414C1.17017 20.414 1.36984 20.3313 1.51706 20.1841C1.66428 20.0369 1.74698 19.8372 1.74698 19.629M8.815 9.06784e-07C7.82993 0.00217547 6.86759 0.296271 6.04959 0.84513C5.23159 1.39399 4.59461 2.17299 4.21915 3.0837C3.84368 3.99441 3.74658 4.99598 3.94009 5.96186C4.1336 6.92774 4.60905 7.8146 5.30637 8.51038C6.00369 9.20617 6.89157 9.67966 7.85788 9.87104C8.82419 10.0624 9.82556 9.9631 10.7354 9.58563C11.6453 9.20816 12.4229 8.56947 12.97 7.75026C13.517 6.93105 13.809 5.96808 13.809 4.983C13.8069 3.66017 13.2797 2.39229 12.3433 1.45794C11.4068 0.523591 10.1378 -0.000795922 8.815 9.06784e-07ZM8.815 1.57C9.48943 1.57277 10.1479 1.77529 10.7073 2.15199C11.2667 2.52869 11.702 3.06269 11.9582 3.68657C12.2144 4.31046 12.28 4.99625 12.1467 5.65738C12.0134 6.31852 11.6873 6.92535 11.2094 7.40126C10.7315 7.87718 10.1234 8.20085 9.4617 8.33141C8.80003 8.46197 8.1145 8.39357 7.49167 8.13484C6.86884 7.87611 6.33663 7.43866 5.96222 6.8777C5.58781 6.31674 5.38801 5.65743 5.388 4.983C5.38986 4.07665 5.7514 3.20811 6.39322 2.56816C7.03504 1.92821 7.90463 1.5692 8.81097 1.57" fill="black"></path>
</svg>